# xmcd
#
# Track frame offsets: 
#        150
#        23570
#        46485
#        68810
#        90937
#        112547
#        129900
#        145010
#        168435
#
# Disc length: 2431 seconds
#
# Revision: 2
# Processed by: cddbd v1.5.2PL0 Copyright (c) Steve Scherf et al.
# Submitted via: ExactAudioCopy v0.95b4
#
DISCID=61097d09
DTITLE=Rosemary Clooney - With Love
DYEAR=1900
DGENRE=Ballad
TTITLE0=Just The Way You Are
TTITLE1=The Way We Were
TTITLE2=Alone At Last
TTITLE3=Come In From The Rain
TTITLE4=Meditation
TTITLE5=Hello Youn Lovers
TTITLE6=Just In Time
TTITLE7=Tenderly
TTITLE8=Will You Still Be Mine
EXTD=
EXTT0=
EXTT1=
EXTT2=
EXTT3=
EXTT4=
EXTT5=
EXTT6=
EXTT7=
EXTT8=
PLAYORDER=
